<?xml version="1.0" encoding="UTF-8"?>
<svg id="Layer_2" data-name="Layer 2" xmlns="http://www.w3.org/2000/svg" viewBox="0 0 747.9 213.42">
  <defs>
    <style>
      .cls-1 {
        fill: #fff;
      }
    </style>
  </defs>
  <g id="Layer_1-2" data-name="Layer 1">
    <g>
      <polygon class="cls-1" points="59.53 75.96 59.53 15.45 67.69 0 59.53 .07 0 .07 0 92 17.5 103.4 60.01 131.09 79.49 131.09 79.49 197.99 71.34 213.42 79.49 213.35 79.49 213.35 139.42 213.35 139.42 115.35 78.99 75.96 59.53 75.96"/>
      <polygon class="cls-1" points="0 107.67 0 213.35 59.53 213.35 59.53 146.45 17 118.74 0 107.67"/>
      <polygon class="cls-1" points="79.49 60.62 139.42 99.66 139.42 .07 79.49 .07 79.49 60.62"/>
      <polygon class="cls-1" points="221.34 90.27 210.66 90.27 210.66 36.48 178.86 36.48 178.86 176.93 210.66 176.93 210.66 119.73 221.34 119.73 221.34 176.93 253.36 176.93 253.36 36.48 221.34 36.48 221.34 90.27"/>
      <path class="cls-1" d="M303.85,143.58c0,2.74-2.22,4.97-4.97,4.97-.04,0-.07,0-.1,0-.05,0-.1,0-.16,0-.9,0-1.73-.14-2.41-.79-1.37-.88-2.28-2.42-2.28-4.18v-8.34c0-.39,0-.79,0-1.21V36.48h-31.8v97.76c0,35.22,12.39,44.18,33.51,44.18s33.3-8.96,33.3-44.18V36.48h-25.07v107.09Z"/>
      <polygon class="cls-1" points="369.7 116.53 385.92 116.53 385.92 96.25 369.7 96.25 369.7 66.15 389.55 66.15 389.55 36.48 337.89 36.48 337.89 176.93 390.83 176.93 390.83 147.26 369.7 147.26 369.7 116.53"/>
      <path class="cls-1" d="M504.39,34.98c-24.33,0-34.36,13.67-34.36,71.73s7.04,71.72,34.15,71.72c24.33,0,32.87-14.3,32.87-51.66,0-4.48-.22-8.96-.42-12.59h-24.97v30.03c0,2.71-2.2,4.91-4.91,4.91s-4.91-2.2-4.91-4.91v-74.64c0-2.71,2.2-4.91,4.91-4.91.04,0,.08,0,.12,0,.1,0,.2,0,.3,0,.81,0,1.46.14,1.99.64.39.22.74.49,1.06.8.9.89,1.44,2.11,1.44,3.47v33.29h25.63c.21-4.27-.24-11.1-.24-16.43,0-35.65-6.83-51.45-32.66-51.45Z"/>
      <polygon class="cls-1" points="665.45 36.48 665.45 66.15 700.35 66.15 700.35 176.93 732.15 176.93 732.15 66.15 747.9 66.15 747.9 36.48 665.45 36.48"/>
      <rect class="cls-1" x="543.81" y="147.26" width="77.26" height="29.67"/>
      <path class="cls-1" d="M580.39,141.07c26.68,0,36.29-12.95,36.29-53.52s-9.82-52.57-36.29-52.57-36.29,13.73-36.29,52.57c0,41.2,9.82,53.52,36.29,53.52ZM575.44,61.9c0-2.42,1.73-4.43,4.03-4.87.29-.07.59-.09.92-.09,0,0,.01,0,.02,0,0,0,0,0,0,0h0s0,0,0,0c.27,0,.52.02.76.08,2.38.37,4.2,2.41,4.2,4.89v52.27c0,2.45-1.78,4.47-4.11,4.88-.27.06-.55.08-.85.09,0,0,0,0,0,0h0s0,0,0,0c0,0-.01,0-.02,0-.47,0-.89-.05-1.27-.19-2.11-.57-3.67-2.48-3.67-4.77v-52.27Z"/>
      <path class="cls-1" d="M442.06,97.31c-5.34-2.78-10.25-5.55-12.17-7.68-.73-.67-1.32-1.52-1.78-2.68h-.03c-.06-.18-.12-.37-.18-.56-.39-1.15-.67-2.59-.87-4.38-.63-4.9-.7-11.55-.62-18.66.02-2.3,1.89-4.15,4.19-4.15s4.19,1.88,4.19,4.19v23.46h26.47c0-40.13-6.19-51.87-32.66-51.87-21.56,0-33.72,12.81-33.72,42.05,0,15.37,3.84,25.19,8.54,30.31,4.27,4.91,10.46,8.54,14.52,10.67,4.48,2.56,8.75,4.91,10.88,7.04.67.74,1.22,1.54,1.65,2.56h.02c.19.39.36.94.51,1.61.36,1.37.59,3.08.71,5.33.26,3.68.25,8.21-.16,12.56-.03.36-.07.7-.11,1.03-.08.72-.17,1.44-.27,2.14-.1.65-.35,1.24-.71,1.76-.47.89-1.07,1.32-1.84,1.51-.52.22-1.09.36-1.69.36-2.37,0-4.29-1.92-4.29-4.29v-21.99h-27.75c0,35.65,6.4,50.8,33.72,50.8,24.76,0,34.79-11.1,34.79-41.84,0-13.02-2.13-21.34-6.83-27.96-3.2-4.48-8.97-8.33-14.52-11.31Z"/>
      <path class="cls-1" d="M665.8,143.52c0,1.8-.96,3.37-2.38,4.26-.65.63-1.44.77-2.34.77-.09,0-.18,0-.26,0-.02,0-.03,0-.04,0-.05,0-.09-.01-.14-.01-.12,0-.24-.02-.36-.04-2.54-.25-4.53-2.37-4.53-4.97V36.48h.64s-31.8,0-31.8,0v97.76c0,35.22,12.38,44.19,33.51,44.19s33.3-8.97,33.3-44.19v-60.51h-25.59v69.78Z"/>
    </g>
  </g>
</svg>