<?xml version="1.0" encoding="UTF-8"?>
<svg id="Layer_2" data-name="Layer 2" xmlns="http://www.w3.org/2000/svg" viewBox="0 0 814.07 205.21">
  <g id="Layer_1-2" data-name="Layer 1">
    <g>
      <path d="M0,2.14h45.5v76.95h15.27V2.14h45.81v200.93h-45.81v-81.84h-15.27v81.84H0V2.14Z"/>
      <path d="M178.81,2.14v153.21c0,3.92-3.18,7.11-7.11,7.11-.05,0-.09,0-.15-.01-.07.01-.15.01-.23.01-1.29,0-2.47-.2-3.45-1.13-1.96-1.25-3.26-3.47-3.26-5.97v-11.93c-.01-.55-.01-1.13-.01-1.73V2.14h-45.5v139.86c0,50.38,17.72,63.21,47.94,63.21s47.64-12.82,47.64-63.21V2.14h-35.87Z"/>
      <path d="M227.51,2.14h73.9v42.45h-28.4v43.06h23.21v29.01h-23.21v43.97h30.23v42.45h-75.73V2.14Z"/>
      <path d="M512.76,97.11c.3-6.11-.34-15.87-.34-23.51,0-51-9.78-73.6-46.73-73.6-34.81,0-49.15,19.55-49.15,102.61s10.07,102.6,48.86,102.6c34.81,0,47.02-20.46,47.02-73.9,0-6.41-.31-12.82-.61-18.02h-35.72v42.96c0,3.88-3.14,7.03-7.03,7.03s-7.03-3.14-7.03-7.03V49.48c0-3.88,3.14-7.03,7.03-7.03.05,0,.12,0,.18.01.15-.01.28-.01.43-.01,1.16,0,2.09.2,2.85.92.55.31,1.07.7,1.51,1.15,1.28,1.27,2.06,3.02,2.06,4.96v47.63h36.67Z"/>
      <path d="M746.03,44.59h-49.93V2.14h117.97v42.45h-22.54v158.48h-45.5V44.59Z"/>
      <rect x="522.09" y="160.63" width="110.53" height="42.45"/>
      <path d="M574.42,0c-37.86,0-51.91,19.65-51.91,75.2,0,58.94,14.05,76.56,51.91,76.56s51.91-18.52,51.91-76.56S612.28,0,574.42,0ZM581.55,113.27c0,3.5-2.54,6.4-5.88,6.98-.38.09-.78.12-1.21.12,0,0,0,0,0,0h0s0,0,0,0c0,0-.02,0-.03,0-.67,0-1.27-.06-1.82-.27-3.02-.82-5.25-3.55-5.25-6.83V38.5c0-3.46,2.48-6.34,5.76-6.97.41-.1.84-.14,1.31-.14,0,0,.02,0,.02,0,0,0,0,0,0,0h0s0,0,.01,0c.38,0,.74.03,1.08.11,3.4.53,6.01,3.44,6.01,6.99v74.77Z"/>
      <path d="M397.3,105.35c-4.58-6.41-12.83-11.91-20.77-16.18-7.63-3.97-14.66-7.94-17.41-10.99-1.05-.95-1.89-2.17-2.55-3.83h-.04c-.09-.25-.17-.53-.25-.8-.56-1.65-.96-3.7-1.24-6.27-.9-7.01-1-16.52-.89-26.69.03-3.29,2.71-5.94,6-5.94s6,2.69,6,6v33.57h37.86C404.02,16.8,395.16,0,357.29,0c-30.84,0-48.25,18.32-48.25,60.16,0,21.99,5.49,36.03,12.21,43.36,6.11,7.02,14.96,12.21,20.77,15.27,6.41,3.67,12.52,7.02,15.57,10.08.96,1.06,1.74,2.21,2.36,3.66h.03c.27.56.51,1.35.73,2.3.51,1.96.84,4.41,1.01,7.63.37,5.26.35,11.74-.24,17.97-.05.52-.1,1.01-.15,1.47-.11,1.03-.24,2.05-.39,3.06-.14.93-.51,1.78-1.01,2.51-.67,1.27-1.54,1.89-2.63,2.15-.75.32-1.56.51-2.42.51h0c-3.39,0-6.14-2.75-6.14-6.14v-31.46h-39.7c0,51,9.16,72.68,48.25,72.68,35.42,0,49.78-15.88,49.78-59.85,0-18.63-3.05-30.54-9.77-40Z"/>
      <path d="M696.6,55.44v99.83c0,2.58-1.37,4.82-3.41,6.09-.93.9-2.06,1.1-3.34,1.1-.13,0-.25,0-.38,0-.02,0-.04,0-.06,0-.07,0-.13-.02-.2-.02-.17-.01-.34-.03-.51-.05-3.63-.36-6.47-3.39-6.47-7.12V2.14h.91s-45.5,0-45.5,0v139.86c0,50.39,17.71,63.21,47.94,63.21s47.64-12.83,47.64-63.21V55.44h-36.61Z"/>
    </g>
  </g>
</svg>